P1
9 9
000000000
011111110
010000010
010111010
010101010
010111010
010000010
011111110
000000000
