P1
11 9
00000000000
01100000000
01100000110
00000000110
00000000000
01100000000
00110010000
00111100000
00000000000
