P1
# une ligne image = une ligne du fichier
19 17
0000000000000000000
0000000011100000000
0000001100011000000
0000100000000100000
0001000000000010000
0010011000011001000
0010011000011001000
0100000000000000100
0100000100100000100
0100000011000000100
0010000000000001000
0010000000000001000
0001000000000010000
0000100000000100000
0000011000011000000
0000000111100000000
0000000000000000000